<svg xmlns="http://www.w3.org/2000/svg" width="68" height="85" id="playlist"><g fill="none" fill-rule="evenodd"><path stroke="#3D42EC" stroke-linecap="round" stroke-linejoin="round" stroke-width="3.165" d="M12.4 1.842v81.242"></path><path stroke="#3D42EC" stroke-width="3.165" d="M2.904 1.842a.528.528 0 0 0-.527.527v80.188c0 .291.236.527.527.527h55.92a6.858 6.858 0 0 0 6.859-6.858V8.7a6.858 6.858 0 0 0-6.859-6.858H2.904Z"></path><path fill="#6FABF6" fill-rule="nonzero" d="M49.785 43.593V31.527l-15.299 3.74v19h-.006c-.153 3.413-2.91 6.133-6.289 6.133-3.477 0-6.295-2.88-6.295-6.433s2.818-6.433 6.295-6.433c1.333 0 2.57.423 3.587 1.146V29.756c0-.807.545-1.512 1.327-1.715l17.355-4.512a1.625 1.625 0 0 1 2.034 1.572v23.33h-.015c.01.149.015.299.015.45 0 3.552-2.819 6.432-6.295 6.432-3.477 0-6.296-2.88-6.296-6.432 0-3.553 2.819-6.433 6.296-6.433 1.332 0 2.569.423 3.586 1.145Z"></path></g></svg>